
<!-- Placeholder SVG for PayPal logo -->
<svg xmlns="http://www.w3.org/2000/svg" width="40" height="24" viewBox="0 0 40 24">
  <rect width="40" height="24" fill="#FFF" rx="4"/>
  <path fill="#253B80" d="M11.5 9.2c-.3-.3-.8-.5-1.5-.5H6.8c-.2 0-.4.2-.4.4L5 17c0 .2.1.3.3.3h2c.2 0 .4-.2.4-.4l.4-2.4c0-.2.2-.4.4-.4h1c1.5 0 2.4-.7 2.6-2.1.1-.6 0-1.1-.2-1.5-.2-.4-.6-.7-1.1-.9l.7 0z"/>
  <path fill="#179BD7" d="M23.9 9.2c-.3-.3-.8-.5-1.5-.5h-3.3c-.2 0-.4.2-.4.4l-1.4 8c0 .2.1.3.3.3h1.7c.2 0 .3-.1.3-.3l.4-2.5c0-.2.2-.4.4-.4h1c1.5 0 2.4-.7 2.6-2.1.1-.6 0-1.1-.2-1.5-.1-.4-.5-.6-.9-.9z"/>
  <path fill="#253B80" d="M18 11.3h-1.4c-.1 0-.2.1-.3.2l-.1.5c0-.2.1-.3.3-.3h1c.4 0 .8.1 1 .2.3.1.5.4.5.7-.2 1.1-1.2 1.1-2.2 1.1h-.5l-.3 2.1h.9c1.5 0 2.3-.5 2.5-1.9.1-.6 0-1-.2-1.3-.3-.2-.7-.4-1.3-.4z"/>
  <path fill="#179BD7" d="M30.4 9.2c-.3-.3-.8-.5-1.5-.5h-3.3c-.2 0-.4.2-.4.4l-1.4 8c0 .2.1.3.3.3h1.7c.2 0 .4-.2.4-.4l.4-2.4c0-.2.2-.4.4-.4h1c1.5 0 2.4-.7 2.6-2.1.1-.6 0-1.1-.2-1.5-.1-.4-.5-.6-1-.9z"/>
  <path fill="#253B80" d="M24.5 11.3h-1.4c-.1 0-.2.1-.3.2l-.1.5c0-.2.1-.3.3-.3h1c.4 0 .8.1 1 .2.3.1.5.4.5.7-.2 1.1-1.2 1.1-2.2 1.1h-.5l-.3 2.1h.9c1.5 0 2.3-.5 2.5-1.9.1-.6 0-1-.2-1.3-.3-.2-.7-.4-1.3-.4z"/>
</svg>
