
<!-- Placeholder SVG for Visa logo -->
<svg xmlns="http://www.w3.org/2000/svg" width="40" height="24" viewBox="0 0 40 24">
  <rect width="40" height="24" fill="#1A1F71" rx="4"/>
  <path fill="#FFF" d="M16 16H13.8L15.3 8H17.5L16 16ZM23.7 8.3C23.1 8.1 22.5 8 21.8 8C19.8 8 18.3 9.1 18.3 10.7C18.3 11.9 19.3 12.5 20.1 12.9C20.9 13.3 21.1 13.5 21.1 13.8C21.1 14.3 20.5 14.5 19.9 14.5C19.1 14.5 18.7 14.4 18 14.1L17.7 14L17.5 15.8C18.2 16.1 19.2 16.2 20.2 16.2C22.3 16.2 23.8 15.1 23.8 13.4C23.8 12.5 23.2 11.8 22 11.3C21.3 11 20.9 10.8 20.9 10.5C20.9 10.2 21.2 9.9 22 9.9C22.6 9.9 23.1 10 23.5 10.2L23.7 10.3L24 8.5C23.3 8.3 22.5 8.2 21.8 8.2"/>
</svg>
